<svg xmlns="http://www.w3.org/2000/svg" viewBox="0 0 300 400">
  <rect x="8" y="8" width="284" height="384" rx="4" fill="none" stroke="#8E6A1A" stroke-width="4"/>
  <rect x="18" y="18" width="264" height="364" rx="2" fill="none" stroke="#8E6A1A" stroke-width="1"/>
  <g fill="none" stroke="#8E6A1A" stroke-width="2">
    <path d="M8,60 C8,26 26,8 60,8"/>
    <path d="M240,8 C274,8 292,26 292,60"/>
    <path d="M292,340 C292,374 274,392 240,392"/>
    <path d="M60,392 C26,392 8,374 8,340"/>
    <path d="M8,45 C24,45 24,24 45,24"/>
    <path d="M255,24 C276,24 276,45 292,45"/>
    <path d="M292,355 C276,355 276,376 255,376"/>
    <path d="M45,376 C24,376 24,355 8,355"/>
  </g>
  <g fill="#8E6A1A">
    <circle cx="30" cy="30" r="4"/>
    <circle cx="270" cy="30" r="4"/>
    <circle cx="270" cy="370" r="4"/>
    <circle cx="30" cy="370" r="4"/>
  </g>
  <g fill="none" stroke="#8E6A1A" stroke-width="1" opacity="0.6">
    <path d="M75,10 L85,18 L75,26 L65,18 Z"/>
    <path d="M225,10 L235,18 L225,26 L215,18 Z"/>
    <path d="M75,374 L85,382 L75,390 L65,382 Z"/>
    <path d="M225,374 L235,382 L225,390 L215,382 Z"/>
  </g>
</svg>
